# xmcd
#
# Track frame offsets:
#	150
#	25552
#	41689
#	62695
#	81934
#	97583
#	116604
#	137616
#	157276
#	179113
#
# Disc length: 2641 seconds
#
# Revision: 0
# Processed by: cddbd v1.5.1PL0 Copyright (c) Steve Scherf et al.
# Submitted via: EasyCDDAExtractor 4.6.9.1
#
DISCID=7f0a4f0a
DTITLE=Depeche Mode - Live Ludwigshafen 02.06.1984
DYEAR=1984
DGENRE=live
TTITLE0=Everything Counts
TTITLE1=Now This Is Fun
TTITLE2=Two Minute Warning
TTITLE3=Shame
TTITLE4=Get The Balance Right
TTITLE5=People Are People
TTITLE6=And Then
TTITLE7=Photographic
TTITLE8=Told You So
TTITLE9=New Life
EXTD=
EXTT0=
EXTT1=
EXTT2=
EXTT3=
EXTT4=
EXTT5=
EXTT6=
EXTT7=
EXTT8=
EXTT9=
PLAYORDER=
